<svg width="222" height="144" viewBox="0 0 222 144" fill="none" xmlns="http://www.w3.org/2000/svg">
<path d="M41.196 120.78C35.4366 116.25 28.939 102.249 28.573 93.579C28.2349 85.577 29.8798 61.832 31.2873 54.396C31.7868 51.7572 33.3175 48.5186 34.6889 47.1992C36.9445 45.0291 37.0892 46.9808 36.2065 67.6592C35.3315 88.1562 35.5747 91.5432 38.5604 100.444C42.0376 110.81 45.4906 115.968 48.9534 115.968C51.2064 115.968 60.3944 105.276 65.0394 97.2502C73.6073 82.4442 85.7444 64.3272 87.5634 63.6282C91.6833 62.0472 94.0258 66.1548 93.1971 73.5069C92.2315 82.0737 97.1667 93.5529 103.204 96.7849C105.394 97.9571 107.186 99.4207 107.186 100.037C107.186 102.494 122.052 105.174 131.117 104.352C148.941 102.736 163.052 92.9432 172.758 75.4542C181.46 59.7742 190.963 29.6062 187.201 29.6062C186.393 29.6062 184.457 31.7652 182.898 34.4041C179.363 40.3889 177.746 40.5475 178.824 34.8039C180.202 27.454 183.869 23.2089 188.839 23.2089C194.435 23.2089 195.429 24.7431 195.356 33.2669C195.212 49.8739 180.071 86.7359 170.077 94.8049C167.1 97.2084 162.805 100.708 160.532 102.581C148.616 112.403 130.611 116.43 114.981 112.77C101.134 109.527 87.9224 98.0117 84.7364 86.4087C84.0495 83.907 81.6131 86.6217 73.1914 99.2727C67.3204 108.092 60.7734 116.946 58.6414 118.948C53.1502 124.106 46.3354 124.822 41.1964 120.78L41.196 120.78Z" fill="#FF4136"/>
</svg>
